<svg width="28" height="28" viewBox="0 0 28 28" fill="none" xmlns="http://www.w3.org/2000/svg" role="img" aria-labelledby="title">
  <title id="title">LinkedIn</title>
  <path d="M7.45 10.9H10.1V21H7.45V10.9ZM8.78 6.25C9.62 6.25 10.3 6.92 10.3 7.75C10.3 8.58 9.62 9.25 8.78 9.25C7.95 9.25 7.27 8.58 7.27 7.75C7.27 6.92 7.95 6.25 8.78 6.25ZM12 10.9H14.54V12.28H14.59C14.95 11.59 15.82 10.67 17.36 10.67C20.09 10.67 20.82 12.47 20.82 14.82V21H18.17V15.35C18.17 14 18.15 12.27 16.3 12.27C14.43 12.27 14.14 13.73 14.14 15.25V21H12V10.9Z" fill="#0A66C2"/>
</svg>
