<svg width="34" height="34" viewBox="0 0 34 34" fill="none" xmlns="http://www.w3.org/2000/svg" role="img" aria-labelledby="title">
  <title id="title">LinkedIn</title>
  <rect x="0.5" y="0.5" width="33" height="33" rx="8" fill="#F8FAFC"/>
  <rect x="0.5" y="0.5" width="33" height="33" rx="8" stroke="#D0D7DE"/>
  <path d="M10.95 13.25H14.05V23.1H10.95V13.25ZM12.5 8.35C13.5 8.35 14.3 9.15 14.3 10.1C14.3 11.08 13.5 11.87 12.5 11.87C11.52 11.87 10.72 11.08 10.72 10.1C10.72 9.15 11.52 8.35 12.5 8.35ZM15.98 13.25H18.95V14.6H19C19.42 13.82 20.43 12.98 21.95 12.98C25.1 12.98 25.68 15.05 25.68 17.75V23.1H22.58V18.35C22.58 17.22 22.56 15.77 21 15.77C19.42 15.77 19.18 17 19.18 18.27V23.1H16.08V13.25H15.98Z" fill="#0A66C2"/>
</svg>
